<svg width="199px" height="122px" viewBox="0 0 199 122" version="1.1" xmlns="http://www.w3.org/2000/svg" xmlns:xlink="http://www.w3.org/1999/xlink">
    <!-- Generator: Sketch 59.1 (86144) - https://sketch.com -->
    <title>Illustration</title>
    <desc>Created with Sketch.</desc>
    <defs>
        <path d="M118.000534,80 C118.021403,81.6051146 117.398724,83.1518709 116.271177,84.2944513 C115.143631,85.4370318 113.605257,86.08 112,86.08 L7,86.08 C5.39474269,86.08 3.85636911,85.4370318 2.72882265,84.2944513 C1.60127618,83.1518709 0.978596563,81.6051146 0.999465919,80 L0.999465919,5.99999998 C0.999465919,2.6862915 3.6862915,-2.37413786e-08 7,-2.37413786e-08 L112,-2.37413786e-08 C113.605257,-2.37413786e-08 115.143631,0.642968244 116.271177,1.78554866 C117.398724,2.92812909 118.021403,4.47488538 118.000534,6.08 L118.000534,80 Z" id="path-1"></path>
    </defs>
    <g id="Modal" stroke="none" stroke-width="1" fill="none" fill-rule="evenodd">
        <g id="p-/-9-/-Mobile-Modal-/-Illustration" transform="translate(-1.000000, -1.000000)">
            <g id="Illustration">
                <path d="M155.000534,116 C155.021403,117.605115 154.398724,119.151871 153.271177,120.294451 C152.143631,121.437032 150.605257,122.08 149,122.08 L44,122.08 C42.3947427,122.08 40.8563691,121.437032 39.7288226,120.294451 C38.6012762,119.151871 37.9785966,117.605115 37.9994659,116 L37.9994659,42 C37.9994659,38.6862915 40.6862915,36 44,36 L149,36 C150.605257,36 152.143631,36.6429682 153.271177,37.7855487 C154.398724,38.9281291 155.021403,40.4748854 155.000534,42.08 L155.000534,116 Z" id="Path" fill="#EAF7FF" fill-rule="nonzero"></path>
                <g id="Clipped" transform="translate(37.000000, 36.000000)">
                    <mask id="mask-2" fill="white">
                        <use xlink:href="#path-1"></use>
                    </mask>
                    <g id="Path"></g>
                    <rect id="Rectangle" fill="#5FCEF5" fill-rule="nonzero" mask="url(#mask-2)" x="-0.15" y="-1.15" width="120.97" height="22.15"></rect>
                </g>
                <path d="M148.55,53.06 L147.55,53.06 C147.273858,53.06 147.05,52.8361424 147.05,52.56 C147.05,52.2838576 147.273858,52.06 147.55,52.06 L148.55,52.06 C148.826142,52.06 149.05,52.2838576 149.05,52.56 C149.05,52.8361424 148.826142,53.06 148.55,53.06 Z M144.55,53.06 L143.55,53.06 C143.273858,53.06 143.05,52.8361424 143.05,52.56 C143.05,52.2838576 143.273858,52.06 143.55,52.06 L144.55,52.06 C144.826142,52.06 145.05,52.2838576 145.05,52.56 C145.05,52.8361424 144.826142,53.06 144.55,53.06 Z M140.55,53.06 L139.55,53.06 C139.273858,53.06 139.05,52.8361424 139.05,52.56 C139.05,52.2838576 139.273858,52.06 139.55,52.06 L140.55,52.06 C140.826142,52.06 141.05,52.2838576 141.05,52.56 C141.05,52.8361424 140.826142,53.06 140.55,53.06 Z M136.55,53.06 L135.55,53.06 C135.273858,53.06 135.05,52.8361424 135.05,52.56 C135.05,52.2838576 135.273858,52.06 135.55,52.06 L136.55,52.06 C136.826142,52.06 137.05,52.2838576 137.05,52.56 C137.05,52.8361424 136.826142,53.06 136.55,53.06 Z M132.55,53.06 L131.55,53.06 C131.273858,53.06 131.05,52.8361424 131.05,52.56 C131.05,52.2838576 131.273858,52.06 131.55,52.06 L132.55,52.06 C132.826142,52.06 133.05,52.2838576 133.05,52.56 C133.05,52.8361424 132.826142,53.06 132.55,53.06 Z M128.55,53.06 L127.55,53.06 C127.273858,53.06 127.05,52.8361424 127.05,52.56 C127.05,52.2838576 127.273858,52.06 127.55,52.06 L128.55,52.06 C128.826142,52.06 129.05,52.2838576 129.05,52.56 C129.05,52.8361424 128.826142,53.06 128.55,53.06 Z M124.55,53.06 L123.55,53.06 C123.273858,53.06 123.05,52.8361424 123.05,52.56 C123.05,52.2838576 123.273858,52.06 123.55,52.06 L124.55,52.06 C124.826142,52.06 125.05,52.2838576 125.05,52.56 C125.05,52.8361424 124.826142,53.06 124.55,53.06 Z M120.55,53.06 L119.55,53.06 C119.273858,53.06 119.05,52.8361424 119.05,52.56 C119.05,52.2838576 119.273858,52.06 119.55,52.06 L120.55,52.06 C120.826142,52.06 121.05,52.2838576 121.05,52.56 C121.05,52.8361424 120.826142,53.06 120.55,53.06 Z M116.55,53.06 L115.55,53.06 C115.273858,53.06 115.05,52.8361424 115.05,52.56 C115.05,52.2838576 115.273858,52.06 115.55,52.06 L116.55,52.06 C116.826142,52.06 117.05,52.2838576 117.05,52.56 C117.05,52.8361424 116.826142,53.06 116.55,53.06 Z M112.55,53.06 L111.55,53.06 C111.273858,53.06 111.05,52.8361424 111.05,52.56 C111.05,52.2838576 111.273858,52.06 111.55,52.06 L112.55,52.06 C112.826142,52.06 113.05,52.2838576 113.05,52.56 C113.05,52.8361424 112.826142,53.06 112.55,53.06 Z M108.55,53.06 L107.55,53.06 C107.273858,53.06 107.05,52.8361424 107.05,52.56 C107.05,52.2838576 107.273858,52.06 107.55,52.06 L108.55,52.06 C108.826142,52.06 109.05,52.2838576 109.05,52.56 C109.05,52.8361424 108.826142,53.06 108.55,53.06 Z M104.55,53.06 L103.55,53.06 C103.273858,53.06 103.05,52.8361424 103.05,52.56 C103.05,52.2838576 103.273858,52.06 103.55,52.06 L104.55,52.06 C104.826142,52.06 105.05,52.2838576 105.05,52.56 C105.05,52.8361424 104.826142,53.06 104.55,53.06 Z M100.55,53.06 L99.55,53.06 C99.2738576,53.06 99.05,52.8361424 99.05,52.56 C99.05,52.2838576 99.2738576,52.06 99.55,52.06 L100.55,52.06 C100.826142,52.06 101.05,52.2838576 101.05,52.56 C101.05,52.8361424 100.826142,53.06 100.55,53.06 Z M96.55,53.06 L95.55,53.06 C95.2738576,53.06 95.05,52.8361424 95.05,52.56 C95.05,52.2838576 95.2738576,52.06 95.55,52.06 L96.55,52.06 C96.8261424,52.06 97.05,52.2838576 97.05,52.56 C97.05,52.8361424 96.8261424,53.06 96.55,53.06 Z M92.55,53.06 L91.55,53.06 C91.2738576,53.06 91.05,52.8361424 91.05,52.56 C91.05,52.2838576 91.2738576,52.06 91.55,52.06 L92.55,52.06 C92.8261424,52.06 93.05,52.2838576 93.05,52.56 C93.05,52.8361424 92.8261424,53.06 92.55,53.06 Z M88.55,53.06 L87.55,53.06 C87.2738576,53.06 87.05,52.8361424 87.05,52.56 C87.05,52.2838576 87.2738576,52.06 87.55,52.06 L88.55,52.06 C88.8261424,52.06 89.05,52.2838576 89.05,52.56 C89.05,52.8361424 88.8261424,53.06 88.55,53.06 Z M84.55,53.06 L83.55,53.06 C83.2738576,53.06 83.05,52.8361424 83.05,52.56 C83.05,52.2838576 83.2738576,52.06 83.55,52.06 L84.55,52.06 C84.8261424,52.06 85.05,52.2838576 85.05,52.56 C85.05,52.8361424 84.8261424,53.06 84.55,53.06 Z M80.55,53.06 L79.55,53.06 C79.2738576,53.06 79.05,52.8361424 79.05,52.56 C79.05,52.2838576 79.2738576,52.06 79.55,52.06 L80.55,52.06 C80.8261424,52.06 81.05,52.2838576 81.05,52.56 C81.05,52.8361424 80.8261424,53.06 80.55,53.06 Z M76.55,53.06 L75.55,53.06 C75.2738576,53.06 75.05,52.8361424 75.05,52.56 C75.05,52.2838576 75.2738576,52.06 75.55,52.06 L76.55,52.06 C76.8261424,52.06 77.05,52.2838576 77.05,52.56 C77.05,52.8361424 76.8261424,53.06 76.55,53.06 Z M72.55,53.06 L71.55,53.06 C71.2738576,53.06 71.05,52.8361424 71.05,52.56 C71.05,52.2838576 71.2738576,52.06 71.55,52.06 L72.55,52.06 C72.8261424,52.06 73.05,52.2838576 73.05,52.56 C73.05,52.8361424 72.8261424,53.06 72.55,53.06 Z M68.55,53.06 L67.55,53.06 C67.2738576,53.06 67.05,52.8361424 67.05,52.56 C67.05,52.2838576 67.2738576,52.06 67.55,52.06 L68.55,52.06 C68.8261424,52.06 69.05,52.2838576 69.05,52.56 C69.05,52.8361424 68.8261424,53.06 68.55,53.06 Z M64.55,53.06 L63.55,53.06 C63.2738576,53.06 63.05,52.8361424 63.05,52.56 C63.05,52.2838576 63.2738576,52.06 63.55,52.06 L64.55,52.06 C64.8261424,52.06 65.05,52.2838576 65.05,52.56 C65.05,52.8361424 64.8261424,53.06 64.55,53.06 Z M60.55,53.06 L59.55,53.06 C59.2738576,53.06 59.05,52.8361424 59.05,52.56 C59.05,52.2838576 59.2738576,52.06 59.55,52.06 L60.55,52.06 C60.8261424,52.06 61.05,52.2838576 61.05,52.56 C61.05,52.8361424 60.8261424,53.06 60.55,53.06 Z M56.55,53.06 L55.55,53.06 C55.2738576,53.06 55.05,52.8361424 55.05,52.56 C55.05,52.2838576 55.2738576,52.06 55.55,52.06 L56.55,52.06 C56.8261424,52.06 57.05,52.2838576 57.05,52.56 C57.05,52.8361424 56.8261424,53.06 56.55,53.06 Z M52.55,53.06 L51.55,53.06 C51.2738576,53.06 51.05,52.8361424 51.05,52.56 C51.05,52.2838576 51.2738576,52.06 51.55,52.06 L52.55,52.06 C52.8261424,52.06 53.05,52.2838576 53.05,52.56 C53.05,52.8361424 52.8261424,53.06 52.55,53.06 Z M48.55,53.06 L47.55,53.06 C47.2738576,53.06 47.05,52.8361424 47.05,52.56 C47.05,52.2838576 47.2738576,52.06 47.55,52.06 L48.55,52.06 C48.8261424,52.06 49.05,52.2838576 49.05,52.56 C49.05,52.8361424 48.8261424,53.06 48.55,53.06 Z M44.55,53.06 L43.55,53.06 C43.2738576,53.06 43.05,52.8361424 43.05,52.56 C43.05,52.2838576 43.2738576,52.06 43.55,52.06 L44.55,52.06 C44.8261424,52.06 45.05,52.2838576 45.05,52.56 C45.05,52.8361424 44.8261424,53.06 44.55,53.06 Z" id="Shape" fill="#D3EDFF" fill-rule="nonzero"></path>
                <circle id="Oval" fill="#4EB7F5" fill-rule="nonzero" cx="49.96" cy="42.82" r="3.99"></circle>
                <circle id="Oval" fill="#4EB7F5" fill-rule="nonzero" cx="72.92" cy="42.82" r="3.99"></circle>
                <circle id="Oval" fill="#4EB7F5" fill-rule="nonzero" cx="95.89" cy="42.82" r="3.99"></circle>
                <circle id="Oval" fill="#4EB7F5" fill-rule="nonzero" cx="118.85" cy="42.82" r="3.99"></circle>
                <circle id="Oval" fill="#4EB7F5" fill-rule="nonzero" cx="141.81" cy="42.82" r="3.99"></circle>
                <rect id="Rectangle" fill="#A7E3FA" fill-rule="nonzero" x="139.81" y="30.18" width="3.99" height="14.64" rx="1.995"></rect>
                <rect id="Rectangle" fill="#A7E3FA" fill-rule="nonzero" x="70.93" y="30.18" width="3.99" height="14.64" rx="1.995"></rect>
                <rect id="Rectangle" fill="#A7E3FA" fill-rule="nonzero" x="116.85" y="30.18" width="3.99" height="14.64" rx="1.995"></rect>
                <rect id="Rectangle" fill="#A7E3FA" fill-rule="nonzero" x="93.89" y="30.18" width="3.99" height="14.64" rx="1.995"></rect>
                <rect id="Rectangle" fill="#A7E3FA" fill-rule="nonzero" x="47.96" y="30.18" width="3.99" height="14.64" rx="1.995"></rect>
                <path d="M83.75,83.68 C83.2991389,83.702062 82.8893947,83.4193385 82.75,82.99 C82.0194034,80.7651082 79.9623036,79.2450761 77.6209606,79.2000503 C75.2796175,79.1550244 73.1655975,80.5948427 72.35,82.79 C72.2400522,83.1442697 71.9430362,83.4085729 71.5783931,83.4766237 C71.2137499,83.5446744 70.8413968,83.4052909 70.6110703,83.1145242 C70.3807439,82.8237575 70.3302907,82.4293857 70.48,82.09 C71.5931565,79.1015804 74.4722658,77.1420539 77.6606946,77.2028073 C80.8491233,77.2635607 83.6514949,79.3313441 84.65,82.36 C84.752486,82.6729344 84.6943451,83.016265 84.494541,83.2780084 C84.2947368,83.5397518 83.9788827,83.6863547 83.65,83.67 L83.75,83.68 Z" id="Path" fill="#3899EC" fill-rule="nonzero"></path>
                <path d="M120.91,83.68 C120.459139,83.702062 120.049395,83.4193385 119.91,82.99 C119.179403,80.7651082 117.122304,79.2450761 114.780961,79.2000503 C112.439618,79.1550244 110.325598,80.5948427 109.51,82.79 C109.296072,83.2749663 108.740902,83.5087626 108.244488,83.3229392 C107.748074,83.1371157 107.48289,82.5962348 107.64,82.09 C108.753157,79.1015804 111.632266,77.1420539 114.820695,77.2028073 C118.009123,77.2635607 120.811495,79.3313441 121.81,82.36 C121.912486,82.6729344 121.854345,83.016265 121.654541,83.2780084 C121.454737,83.5397518 121.138883,83.6863547 120.81,83.67 L120.91,83.68 Z" id="Path" fill="#3899EC" fill-rule="nonzero"></path>
                <path d="M105.71,91.71 C104.038675,95.4436241 100.289433,97.809077 96.2,97.71 C92.5229708,97.7677185 89.0935752,95.8624987 87.2,92.71 L87.2,92.71 C87.0019019,92.3624573 86.8281515,92.0015911 86.68,91.63 L105.71,91.71 Z" id="Path" fill="#3899EC" fill-rule="nonzero"></path>
                <path d="M96.21,98.66 C92.1667056,98.7382456 88.3903713,96.647911 86.31,93.18 C86.090064,92.8003105 85.896281,92.4060623 85.73,92 C85.6073631,91.6925548 85.644805,91.344345 85.83,91.07 C86.0162704,90.7944212 86.3273739,90.6294989 86.66,90.6299989 L105.71,90.73 C106.042585,90.7316568 106.352582,90.8985567 106.537069,91.1752874 C106.721556,91.452018 106.756388,91.8023615 106.63,92.11 C104.772963,96.1753202 100.678498,98.749096 96.21,98.66 L96.21,98.66 Z M88.31,92.66 C90.1062383,95.2334072 93.0726099,96.7353676 96.21,96.66 C99.3222321,96.6975829 102.253818,95.2018757 104.05,92.66 L88.31,92.66 Z" id="Shape" fill="#3899EC" fill-rule="nonzero"></path>
                <rect id="Rectangle" fill="#FFFFFF" fill-rule="nonzero" transform="translate(160.208487, 89.433267) rotate(-74.080000) translate(-160.208487, -89.433267) " x="159.213487" y="86.4532674" width="1.99" height="5.96"></rect>
                <polygon id="Path" fill="#C1E4FE" fill-rule="nonzero" points="5 52.75 7.51 52.09 8.37 49.63 9.03 52.15 11.49 53.01 8.97 53.67 8.11 56.12 7.45 53.6"></polygon>
                <polygon id="Path" fill="#C1E4FE" fill-rule="nonzero" points="0.94 25.91 5.29 24.77 6.77 20.53 7.91 24.88 12.15 26.36 7.81 27.5 6.32 31.74 5.18 27.39"></polygon>
                <rect id="Rectangle" fill="#C1E4FE" fill-rule="nonzero" transform="translate(19.189011, 42.271764) rotate(-63.420000) translate(-19.189011, -42.271764) " x="18.4490108" y="40.0517641" width="1.48" height="4.44"></rect>
                <rect id="Rectangle" fill="#C1E4FE" fill-rule="nonzero" transform="translate(23.281369, 7.397238) rotate(-37.220000) translate(-23.281369, -7.397238) " x="21.1313685" y="0.952238368" width="4.3" height="12.89"></rect>
                <rect id="Rectangle" fill="#C1E4FE" fill-rule="nonzero" transform="translate(18.873198, 73.136357) rotate(-20.390000) translate(-18.873198, -73.136357) " x="14.688198" y="71.741357" width="8.37" height="2.79"></rect>
                <polygon id="Path" fill="#C1E4FE" fill-rule="nonzero" points="166.8 46.85 172.14 45.23 173.77 39.88 175.4 45.23 180.74 46.85 175.4 48.49 173.77 53.83 172.14 48.49"></polygon>
                <polygon id="Path" fill="#C1E4FE" fill-rule="nonzero" points="192.51 59.87 195.07 59.09 195.86 56.52 196.64 59.09 199.2 59.87 196.64 60.65 195.86 63.21 195.07 60.65"></polygon>
                <rect id="Rectangle" fill="#C1E4FE" fill-rule="nonzero" transform="translate(183.184907, 75.985001) rotate(-74.080000) translate(-183.184907, -75.985001) " x="182.269907" y="73.2450009" width="1.83" height="5.48"></rect>
                <rect id="Rectangle" fill="#C1E4FE" fill-rule="nonzero" transform="translate(173.045500, 8.891750) rotate(-71.384308) translate(-173.045500, -8.891750) " x="166.584729" y="6.73648894" width="12.9215419" height="4.31052213"></rect>
                <rect id="Rectangle" fill="#C1E4FE" fill-rule="nonzero" transform="translate(190.750750, 31.151850) rotate(-5.142765) translate(-190.750750, -31.151850) " x="186.548835" y="29.7512116" width="8.40383013" height="2.80127671"></rect>
            </g>
        </g>
    </g>
</svg>
